<svg width="50" height="50" viewBox="0 0 50 50" fill="none" xmlns="http://www.w3.org/2000/svg">
<path d="M40.4792 27.0417C40.5625 26.375 40.625 25.7083 40.625 25C40.625 24.2917 40.5625 23.625 40.4792 22.9583L44.875 19.5208C45.2708 19.2083 45.375 18.6458 45.125 18.1875L40.9583 10.9792C40.7083 10.5208 40.1458 10.3542 39.6875 10.5208L34.5 12.6042C33.4167 11.7708 32.25 11.0833 30.9792 10.5625L30.1875 5.04167C30.125 4.54167 29.6875 4.16667 29.1667 4.16667H20.8333C20.3125 4.16667 19.875 4.54167 19.8125 5.04167L19.0208 10.5625C17.75 11.0833 16.5833 11.7917 15.5 12.6042L10.3125 10.5208C9.83333 10.3333 9.29167 10.5208 9.04167 10.9792L4.875 18.1875C4.60417 18.6458 4.72917 19.2083 5.125 19.5208L9.52083 22.9583C9.4375 23.625 9.375 24.3125 9.375 25C9.375 25.6875 9.4375 26.375 9.52083 27.0417L5.125 30.4792C4.72917 30.7917 4.625 31.3542 4.875 31.8125L9.04167 39.0208C9.29167 39.4792 9.85417 39.6458 10.3125 39.4792L15.5 37.3958C16.5833 38.2292 17.75 38.9167 19.0208 39.4375L19.8125 44.9583C19.875 45.4583 20.3125 45.8333 20.8333 45.8333H29.1667C29.6875 45.8333 30.125 45.4583 30.1875 44.9583L30.9792 39.4375C32.25 38.9167 33.4167 38.2083 34.5 37.3958L39.6875 39.4792C40.1667 39.6667 40.7083 39.4792 40.9583 39.0208L45.125 31.8125C45.375 31.3542 45.2708 30.7917 44.875 30.4792L40.4792 27.0417ZM25 36.6667C20.9792 36.6667 13.3333 29.0208 13.3333 25C13.3333 20.9792 20.9792 13.3333 25 13.3333C29.0208 13.3333 36.6667 20.9792 36.6667 25C36.6667 29.0208 29.0208 36.6667 25 36.6667Z" fill="#096942"/>
<path d="M34.5062 12.7778H15.4938C14 12.7778 12.7778 14 12.7778 15.4938V34.5062C12.7778 36 14 37.2222 15.4938 37.2222H34.5062C36 37.2222 37.2222 36 37.2222 34.5062V15.4938C37.2222 14 36 12.7778 34.5062 12.7778ZM20.9259 31.7901H18.2099V22.284H20.9259V31.7901ZM26.358 31.7901H23.642V18.2099H26.358V31.7901ZM31.7901 31.7901H29.0741V26.358H31.7901V31.7901Z" fill="#096942"/>
</svg>
