<svg width="90" height="90" viewBox="0 0 90 90" fill="none" xmlns="http://www.w3.org/2000/svg">
<path d="M72.8625 48.675C73.0125 47.475 73.125 46.275 73.125 45C73.125 43.725 73.0125 42.525 72.8625 41.325L80.775 35.1375C81.4875 34.575 81.675 33.5625 81.225 32.7375L73.725 19.7625C73.275 18.9375 72.2625 18.6375 71.4375 18.9375L62.1 22.6875C60.15 21.1875 58.05 19.95 55.7625 19.0125L54.3375 9.075C54.225 8.175 53.4375 7.5 52.5 7.5H37.5C36.5625 7.5 35.775 8.175 35.6625 9.075L34.2375 19.0125C31.95 19.95 29.85 21.225 27.9 22.6875L18.5625 18.9375C17.7 18.6 16.725 18.9375 16.275 19.7625L8.77501 32.7375C8.28751 33.5625 8.51251 34.575 9.22501 35.1375L17.1375 41.325C16.9875 42.525 16.875 43.7625 16.875 45C16.875 46.2375 16.9875 47.475 17.1375 48.675L9.22501 54.8625C8.51251 55.425 8.32501 56.4375 8.77501 57.2625L16.275 70.2375C16.725 71.0625 17.7375 71.3625 18.5625 71.0625L27.9 67.3125C29.85 68.8125 31.95 70.05 34.2375 70.9875L35.6625 80.925C35.775 81.825 36.5625 82.5 37.5 82.5H52.5C53.4375 82.5 54.225 81.825 54.3375 80.925L55.7625 70.9875C58.05 70.05 60.15 68.775 62.1 67.3125L71.4375 71.0625C72.3 71.4 73.275 71.0625 73.725 70.2375L81.225 57.2625C81.675 56.4375 81.4875 55.425 80.775 54.8625L72.8625 48.675ZM45 65C24 65 25 66 25 45C25 24 24 25 45 25C66 25 65 24 65 45C65 66 66 65 45 65Z" fill="#096942"/>
<path d="M62.1111 24H45H27.8889C25.2 24 24 25.2 24 27.8889V45V62.1111C24 64.8 25.3111 66 28 66H62.1111C64.8 66 66 64.8 66 62.1111V45V27.8889C66 25.2 64.8 24 62.1111 24ZM35 59C35 59.5523 34.5523 60 34 60H29C28.4477 60 28 59.5523 28 59V37C28 36.4477 28.4477 36 29 36H34C34.5523 36 35 36.4477 35 37V59ZM48.5 59C48.5 59.5523 48.0523 60 47.5 60H42.5C41.9477 60 41.5 59.5523 41.5 59V31C41.5 30.4477 41.9477 30 42.5 30H47.5C48.0523 30 48.5 30.4477 48.5 31V59ZM62 59C62 59.5523 61.5523 60 61 60H56C55.4477 60 55 59.5523 55 59V46C55 45.4477 55.4477 45 56 45H61C61.5523 45 62 45.4477 62 46V59Z" fill="#096942"/>
</svg>
