<svg xmlns="http://www.w3.org/2000/svg" width="500" height="500" fill="none" viewBox="0 0 500 500">
  <g clip-path="url(#a)">
    <path fill="#000" d="M160.86 438.84v-6.24h24.8c1.6 0 2.4-.8 2.4-2.4v-8.8c0-1.6-.8-2.4-2.4-2.4h-24v-31.2h35.52v10.4h-24v10.4h12.96c8.96 0 13.44 4.48 13.44 13.44v7.52c0 8.96-4.48 13.44-13.44 13.44h-19.92l-5.36-4.16Zm49.29 4.16v-10.4h12.24v-34.4h-10.24v-6.24l5.36-4.16h16.4v44.8h10.96V443h-34.72Zm44.81-4.16v-6.24h23.2c1.6 0 2.4-.8 2.4-2.4v-8c0-1.6-.8-2.4-2.4-2.4h-17.28v-10.4h17.28c1.6 0 2.4-.8 2.4-2.4v-6.4c0-1.6-.8-2.4-2.4-2.4h-22.4v-6.24l5.36-4.16h17.52c8.96 0 13.44 4.48 13.44 13.44v5.12c0 2.133-.667 3.867-2 5.2l-2.8 2.8 2.8 2.8c1.333 1.333 2 3.067 2 5.2v7.2c0 8.96-4.48 13.44-13.44 13.44h-18.32l-5.36-4.16Zm44.65 0v-6.24h24.8c1.6 0 2.4-.8 2.4-2.4v-8.8c0-1.6-.8-2.4-2.4-2.4h-24v-31.2h35.52v10.4h-24v10.4h12.96c8.96 0 13.44 4.48 13.44 13.44v7.52c0 8.96-4.48 13.44-13.44 13.44h-19.92l-5.36-4.16Z"/>
    <path fill="#fff" d="M160.86 438.84h-2v.979l.774.601 1.226-1.58Zm0-6.24v-2h-2v2h2Zm.8-13.6h-2v2h2v-2Zm0-31.2v-2h-2v2h2Zm35.52 0h2v-2h-2v2Zm0 10.4v2h2v-2h-2Zm-24 0v-2h-2v2h2Zm0 10.4h-2v2h2v-2Zm-6.96 34.4-1.226 1.58.541.42h.685v-2Zm-3.36-4.16v-6.24h-4v6.24h4Zm-2-4.24h24.8v-4h-24.8v4Zm24.8 0c1.108 0 2.307-.278 3.214-1.186.908-.907 1.186-2.106 1.186-3.214h-4c0 .492-.122.493-.014.386.107-.108.106.014-.386.014v4Zm4.4-4.4v-8.8h-4v8.8h4Zm0-8.8c0-1.108-.278-2.307-1.186-3.214-.907-.908-2.106-1.186-3.214-1.186v4c.492 0 .493.122.386.014-.108-.107.014-.106.014.386h4Zm-4.4-4.4h-24v4h24v-4Zm-22 2v-31.2h-4V419h4Zm-2-29.2h35.52v-4h-35.52v4Zm33.52-2v10.4h4v-10.4h-4Zm2 8.4h-24v4h24v-4Zm-26 2v10.4h4v-10.4h-4Zm2 12.4h12.96v-4h-12.96v4Zm12.96 0c4.172 0 6.933 1.042 8.666 2.774 1.732 1.733 2.774 4.494 2.774 8.666h4c0-4.788-1.198-8.747-3.946-11.494-2.747-2.748-6.706-3.946-11.494-3.946v4Zm11.44 11.44v7.52h4v-7.52h-4Zm0 7.52c0 4.172-1.042 6.933-2.774 8.666-1.733 1.732-4.494 2.774-8.666 2.774v4c4.788 0 8.747-1.198 11.494-3.946 2.748-2.747 3.946-6.706 3.946-11.494h-4ZM186.14 441h-19.92v4h19.92v-4Zm-18.694.42-5.36-4.16-2.452 3.16 5.36 4.16 2.452-3.16ZM210.15 443h-2v2h2v-2Zm0-10.4v-2h-2v2h2Zm12.24 0v2h2v-2h-2Zm0-34.4h2v-2h-2v2Zm-10.24 0h-2v2h2v-2Zm0-6.24-1.226-1.58-.774.601v.979h2Zm5.36-4.16v-2h-.685l-.541.42 1.226 1.58Zm16.4 0h2v-2h-2v2Zm0 44.8h-2v2h2v-2Zm10.96 0h2v-2h-2v2Zm0 10.4v2h2v-2h-2Zm-32.72 0v-10.4h-4V443h4Zm-2-8.4h12.24v-4h-12.24v4Zm14.24-2v-34.4h-4v34.4h4Zm-2-36.4h-10.24v4h10.24v-4Zm-8.24 2v-6.24h-4v6.24h4Zm-.774-4.66 5.36-4.16-2.452-3.16-5.36 4.16 2.452 3.16Zm4.134-3.74h16.4v-4h-16.4v4Zm14.4-2v44.8h4v-44.8h-4Zm2 46.8h10.96v-4h-10.96v4Zm8.96-2V443h4v-10.4h-4Zm2 8.4h-34.72v4h34.72v-4Zm10.09-2.16h-2v.979l.774.601 1.226-1.58Zm0-6.24v-2h-2v2h2Zm5.92-12.8h-2v2h2v-2Zm0-10.4v-2h-2v2h2Zm-5.12-11.2h-2v2h2v-2Zm0-6.24-1.226-1.58-.774.601v.979h2Zm5.36-4.16v-2h-.685l-.541.42 1.226 1.58Zm28.96 23.76 1.414 1.414-1.414-1.414Zm-2.8 2.8-1.414-1.414-1.414 1.414 1.414 1.414 1.414-1.414Zm2.8 2.8 1.414-1.414-1.414 1.414ZM260.32 443l-1.226 1.58.541.42h.685v-2Zm-3.36-4.16v-6.24h-4v6.24h4Zm-2-4.24h23.2v-4h-23.2v4Zm23.2 0c1.108 0 2.307-.278 3.214-1.186.908-.907 1.186-2.106 1.186-3.214h-4c0 .492-.122.493-.014.386.107-.108.106.014-.386.014v4Zm4.4-4.4v-8h-4v8h4Zm0-8c0-1.108-.278-2.307-1.186-3.214-.907-.908-2.106-1.186-3.214-1.186v4c.492 0 .493.122.386.014-.108-.107.014-.106.014.386h4Zm-4.4-4.4h-17.28v4h17.28v-4Zm-15.28 2v-10.4h-4v10.4h4Zm-2-8.4h17.28v-4h-17.28v4Zm17.28 0c1.108 0 2.307-.278 3.214-1.186.908-.907 1.186-2.106 1.186-3.214h-4c0 .492-.122.493-.014.386.107-.108.106.014-.386.014v4Zm4.4-4.4v-6.4h-4v6.4h4Zm0-6.4c0-1.108-.278-2.307-1.186-3.214-.907-.908-2.106-1.186-3.214-1.186v4c.492 0 .493.122.386.014-.108-.107.014-.106.014.386h4Zm-4.4-4.4h-22.4v4h22.4v-4Zm-20.4 2v-6.24h-4v6.24h4Zm-.774-4.66 5.36-4.16-2.452-3.16-5.36 4.16 2.452 3.16Zm4.134-3.74h17.52v-4h-17.52v4Zm17.52 0c4.172 0 6.933 1.042 8.666 2.774 1.732 1.733 2.774 4.494 2.774 8.666h4c0-4.788-1.198-8.747-3.946-11.494-2.747-2.748-6.706-3.946-11.494-3.946v4Zm11.44 11.44v5.12h4v-5.12h-4Zm0 5.12c0 1.679-.506 2.878-1.414 3.786l2.828 2.828c1.759-1.759 2.586-4.026 2.586-6.614h-4Zm-1.414 3.786-2.8 2.8 2.828 2.828 2.8-2.8-2.828-2.828Zm-2.8 5.628 2.8 2.8 2.828-2.828-2.8-2.8-2.828 2.828Zm2.8 2.8c.908.908 1.414 2.107 1.414 3.786h4c0-2.588-.827-4.855-2.586-6.614l-2.828 2.828Zm1.414 3.786v7.2h4v-7.2h-4Zm0 7.2c0 4.172-1.042 6.933-2.774 8.666-1.733 1.732-4.494 2.774-8.666 2.774v4c4.788 0 8.747-1.198 11.494-3.946 2.748-2.747 3.946-6.706 3.946-11.494h-4ZM278.64 441h-18.32v4h18.32v-4Zm-17.094.42-5.36-4.16-2.452 3.16 5.36 4.16 2.452-3.16Zm38.064-2.58h-2v.979l.774.601 1.226-1.58Zm0-6.24v-2h-2v2h2Zm.8-13.6h-2v2h2v-2Zm0-31.2v-2h-2v2h2Zm35.52 0h2v-2h-2v2Zm0 10.4v2h2v-2h-2Zm-24 0v-2h-2v2h2Zm0 10.4h-2v2h2v-2Zm-6.96 34.4-1.226 1.58.541.42h.685v-2Zm-3.36-4.16v-6.24h-4v6.24h4Zm-2-4.24h24.8v-4h-24.8v4Zm24.8 0c1.108 0 2.307-.278 3.214-1.186.908-.907 1.186-2.106 1.186-3.214h-4c0 .492-.122.493-.014.386.107-.108.106.014-.386.014v4Zm4.4-4.4v-8.8h-4v8.8h4Zm0-8.8c0-1.108-.278-2.307-1.186-3.214-.907-.908-2.106-1.186-3.214-1.186v4c.492 0 .493.122.386.014-.108-.107.014-.106.014.386h4Zm-4.4-4.4h-24v4h24v-4Zm-22 2v-31.2h-4V419h4Zm-2-29.2h35.52v-4h-35.52v4Zm33.52-2v10.4h4v-10.4h-4Zm2 8.4h-24v4h24v-4Zm-26 2v10.4h4v-10.4h-4Zm2 12.4h12.96v-4h-12.96v4Zm12.96 0c4.172 0 6.933 1.042 8.666 2.774 1.732 1.733 2.774 4.494 2.774 8.666h4c0-4.788-1.198-8.747-3.946-11.494-2.747-2.748-6.706-3.946-11.494-3.946v4Zm11.44 11.44v7.52h4v-7.52h-4Zm0 7.52c0 4.172-1.042 6.933-2.774 8.666-1.733 1.732-4.494 2.774-8.666 2.774v4c4.788 0 8.747-1.198 11.494-3.946 2.748-2.747 3.946-6.706 3.946-11.494h-4ZM324.89 441h-19.92v4h19.92v-4Zm-18.694.42-5.36-4.16-2.452 3.16 5.36 4.16 2.452-3.16Z"/>
    <path fill="#000" d="M9.441 365v-48.3h22.82c7.84 0 11.76 3.92 11.76 11.76v4.2c0 1.587-.467 2.94-1.4 4.06l-2.45 2.94 2.94 2.45c1.54 1.26 2.31 3.127 2.31 5.6v5.53c0 7.84-3.92 11.76-11.76 11.76H9.441Zm10.08-9.1h13.72c1.4 0 2.1-.7 2.1-2.1v-7c0-1.4-.7-2.1-2.1-2.1h-13.72v11.2Zm0-20.3h12.32c1.4 0 2.1-.7 2.1-2.1v-5.6c0-1.4-.7-2.1-2.1-2.1h-12.32v9.8Zm34.604 15.96V313.2h9.66v39.34c0 2.893 1.494 4.503 4.48 4.83v8.33c-9.426 0-14.14-4.713-14.14-14.14ZM85.455 365c-7.56 0-11.34-3.71-11.34-11.13 0-7.42 3.78-11.13 11.34-11.13h9.66v-4.06c0-1.493-.746-2.24-2.24-2.24h-14.84v-5.25l4.2-3.15h11.2c7.56 0 11.34 3.78 11.34 11.34V365h-19.32Zm-1.68-10.64c0 1.493.747 2.24 2.24 2.24h9.1v-6.44h-9.1c-1.493 0-2.24.747-2.24 2.24v1.96Zm30.226-.7v-14.28c0-7.56 3.78-11.34 11.34-11.34h13.02l4.2 3.15v5.25h-16.66c-1.493 0-2.24.747-2.24 2.24v15.68c0 1.493.747 2.24 2.24 2.24h16.66v5.25l-4.2 3.15h-13.02c-7.56 0-11.34-3.78-11.34-11.34ZM150.792 365v-51.8h9.66v28.77l12.81-13.93h9.52l.77 1.61-12.81 13.79 13.79 19.95-.77 1.61h-9.45l-9.94-14.63-3.92 4.27V365h-9.66Zm57.702-11.76V316.7h10.08v37.1c0 1.4.7 2.1 2.1 2.1h13.72c1.4 0 2.1-.7 2.1-2.1v-37.1h10.08v36.54c0 7.84-3.92 11.76-11.76 11.76h-14.56c-7.84 0-11.76-3.92-11.76-11.76Zm48.46 11.76v-36.96h20.44c7.56 0 11.34 3.78 11.34 11.34V365h-9.66v-26.32c0-1.493-.747-2.24-2.24-2.24h-10.22V365h-9.66Zm41.353-43.05v-9.45h10.08v9.45h-10.08Zm.21 43.05v-36.96h9.66V365h-9.66Zm19.195-11.34v-14.28c0-7.56 3.78-11.34 11.34-11.34h13.02l4.2 3.15v5.25h-16.66c-1.493 0-2.24.747-2.24 2.24v15.68c0 1.493.747 2.24 2.24 2.24h16.66v5.25l-4.2 3.15h-13.02c-7.56 0-11.34-3.78-11.34-11.34Zm36.231 0v-14.28c0-7.56 3.78-11.34 11.34-11.34h9.8c7.56 0 11.34 3.78 11.34 11.34v14.28c0 7.56-3.78 11.34-11.34 11.34h-9.8c-7.56 0-11.34-3.78-11.34-11.34Zm9.66.7c0 1.493.747 2.24 2.24 2.24h8.68c1.493 0 2.24-.747 2.24-2.24v-15.68c0-1.493-.747-2.24-2.24-2.24h-8.68c-1.493 0-2.24.747-2.24 2.24v15.68ZM395.649 365v-32.2c1.726-3.173 5.04-4.76 9.94-4.76h7.56l4.2 3.15v5.25h-9.17c-1.4 0-2.357.35-2.87 1.05V365h-9.66Zm28.58 0v-36.96h20.44c7.56 0 11.34 3.78 11.34 11.34V365h-9.66v-26.32c0-1.493-.746-2.24-2.24-2.24h-10.22V365h-9.66Zm40.303-3.15v-5.25h16.1c1.587 0 2.38-.887 2.38-2.66 0-1.82-.653-2.847-1.96-3.08l-7.56-1.26c-5.973-1.027-8.96-4.48-8.96-10.36 0-7.467 3.78-11.2 11.34-11.2h10.85l4.2 3.15v5.25h-14.49c-1.587 0-2.38.887-2.38 2.66 0 1.867.723 2.917 2.17 3.15l7.49 1.26c5.927.98 8.89 4.387 8.89 10.22 0 7.513-3.803 11.27-11.41 11.27h-12.46l-4.2-3.15Z"/>
    <path fill="#fff" d="M9.441 365h-2v2h2v-2Zm0-48.3v-2h-2v2h2Zm33.18 20.02 1.537 1.28-1.537-1.28Zm-2.45 2.94-1.536-1.28-1.28 1.536 1.536 1.28 1.28-1.536Zm2.94 2.45-1.28 1.536.007.006.007.006 1.266-1.548Zm-23.59 13.79h-2v2h2v-2Zm0-11.2v-2h-2v2h2Zm0-9.1h-2v2h2v-2Zm0-9.8v-2h-2v2h2Zm-8.08 39.2v-48.3h-4V365h4Zm-2-46.3h22.82v-4H9.441v4Zm22.82 0c3.612 0 5.953.902 7.406 2.354 1.453 1.453 2.354 3.794 2.354 7.406h4c0-4.228-1.058-7.767-3.526-10.234-2.467-2.468-6.005-3.526-10.234-3.526v4Zm9.76 9.76v4.2h4v-4.2h-4Zm0 4.2c0 1.163-.33 2.052-.936 2.78l3.073 2.56c1.26-1.512 1.863-3.33 1.863-5.34h-4Zm-.936 2.78-2.45 2.94 3.073 2.56 2.45-2.94-3.073-2.56Zm-2.194 5.756 2.94 2.45 2.56-3.072-2.94-2.45-2.56 3.072Zm2.954 2.462c.965.789 1.576 2.019 1.576 4.052h4c0-2.914-.928-5.417-3.043-7.148l-2.533 3.096Zm1.576 4.052v5.53h4v-5.53h-4Zm0 5.53c0 3.612-.901 5.953-2.354 7.406-1.453 1.452-3.794 2.354-7.406 2.354v4c4.228 0 7.767-1.058 10.234-3.526 2.468-2.467 3.526-6.006 3.526-10.234h-4Zm-9.76 9.76H9.441v4h24.22v-4Zm-14.14-5.1h13.72v-4h-13.72v4Zm13.72 0c1.008 0 2.132-.253 2.99-1.111.857-.857 1.11-1.981 1.11-2.989h-4c0 .189-.024.274-.028.286-.002.005.002-.01.018-.035a.464.464 0 0 1 .161-.161c.026-.016.04-.02.035-.019a.967.967 0 0 1-.286.029v4Zm4.1-4.1v-7h-4v7h4Zm0-7c0-1.008-.253-2.132-1.11-2.989-.858-.858-1.982-1.111-2.99-1.111v4a.97.97 0 0 1 .287.029c.004.001-.01-.003-.036-.019a.464.464 0 0 1-.161-.161c-.016-.025-.02-.04-.018-.035.004.012.028.097.028.286h4Zm-4.1-4.1h-13.72v4h13.72v-4Zm-15.72 2v11.2h4v-11.2h-4Zm2-7.1h12.32v-4h-12.32v4Zm12.32 0c1.008 0 2.132-.253 2.99-1.111.857-.857 1.11-1.981 1.11-2.989h-4c0 .189-.024.274-.028.286-.002.005.002-.01.018-.035a.464.464 0 0 1 .161-.161c.026-.016.04-.02.035-.019a.967.967 0 0 1-.286.029v4Zm4.1-4.1v-5.6h-4v5.6h4Zm0-5.6c0-1.008-.253-2.132-1.11-2.989-.858-.858-1.982-1.111-2.99-1.111v4c.19 0 .274.024.286.029.005.001-.01-.003-.035-.019a.464.464 0 0 1-.161-.161c-.016-.025-.02-.04-.018-.035.004.012.028.097.028.286h4Zm-4.1-4.1h-12.32v4h12.32v-4Zm-14.32 2v9.8h4v-9.8h-4Zm36.604-12.6v-2h-2v2h2Zm9.66 0h2v-2h-2v2Zm4.48 44.17h2v-1.793l-1.782-.195-.218 1.988Zm0 8.33v2h2v-2h-2Zm-12.14-14.14V313.2h-4v38.36h4Zm-2-36.36h9.66v-4h-9.66v4Zm7.66-2v39.34h4V313.2h-4Zm0 39.34c0 1.787.467 3.458 1.654 4.738 1.177 1.269 2.814 1.884 4.609 2.08l.435-3.976c-1.192-.13-1.795-.484-2.111-.825-.307-.33-.587-.91-.587-2.017h-4Zm4.48 4.83v8.33h4v-8.33h-4Zm2 6.33c-4.405 0-7.341-1.1-9.19-2.949-1.85-1.85-2.95-4.786-2.95-9.191h-4c0 5.022 1.257 9.155 4.121 12.019 2.864 2.864 6.998 4.121 12.02 4.121v-4Zm26.85-20.96v2h2v-2h-2Zm-17.08-6.3h-2v2h2v-2Zm0-5.25-1.2-1.6-.8.6v1h2Zm4.2-3.15v-2h-.666l-.534.4 1.2 1.6Zm22.54 36.96v2h2v-2h-2Zm-9.66-8.4v2h2v-2h-2Zm0-6.44h2v-2h-2v2ZM85.455 363c-3.48 0-5.722-.854-7.104-2.21-1.374-1.349-2.236-3.528-2.236-6.92h-4c0 4.028 1.029 7.414 3.434 9.775 2.399 2.354 5.827 3.355 9.906 3.355v-4Zm-9.34-9.13c0-3.392.862-5.571 2.236-6.92 1.382-1.356 3.623-2.21 7.104-2.21v-4c-4.079 0-7.507 1.001-9.906 3.355-2.405 2.361-3.434 5.747-3.434 9.775h4Zm9.34-9.13h9.66v-4h-9.66v4Zm11.66-2v-4.06h-4v4.06h4Zm0-4.06c0-1.055-.265-2.214-1.146-3.094-.88-.881-2.039-1.146-3.094-1.146v4c.213 0 .317.027.348.037.02.007-.024-.005-.082-.063-.058-.057-.07-.102-.063-.082.01.031.037.135.037.348h4Zm-4.24-4.24h-14.84v4h14.84v-4Zm-12.84 2v-5.25h-4v5.25h4Zm-.8-3.65 4.2-3.15-2.4-3.2-4.2 3.15 2.4 3.2Zm3-2.75h11.2v-4h-11.2v4Zm11.2 0c3.472 0 5.708.867 7.091 2.249 1.383 1.383 2.249 3.619 2.249 7.091h4c0-4.088-1.023-7.522-3.421-9.919-2.397-2.398-5.83-3.421-9.919-3.421v4Zm9.34 9.34V365h4v-25.62h-4Zm2 23.62h-19.32v4h19.32v-4Zm-23-8.64c0 1.055.265 2.214 1.146 3.094.88.881 2.04 1.146 3.094 1.146v-4c-.213 0-.317-.027-.347-.037-.021-.007.024.005.081.063.058.057.07.102.064.082a1.188 1.188 0 0 1-.038-.348h-4Zm4.24 4.24h9.1v-4h-9.1v4Zm11.1-2v-6.44h-4v6.44h4Zm-2-8.44h-9.1v4h9.1v-4Zm-9.1 0c-1.055 0-2.213.265-3.094 1.146-.88.88-1.146 2.039-1.146 3.094h4c0-.213.027-.317.037-.348.007-.02-.005.025-.063.082-.057.058-.102.07-.081.063.03-.01.134-.037.347-.037v-4Zm-4.24 4.24v1.96h4v-1.96h-4Zm56.586-24.36 1.2-1.6-.533-.4h-.667v2Zm4.2 3.15h2v-1l-.8-.6-1.2 1.6Zm0 5.25v2h2v-2h-2Zm0 20.16h2v-2h-2v2Zm0 5.25 1.2 1.6.8-.6v-1h-2Zm-4.2 3.15v2h.667l.533-.4-1.2-1.6Zm-22.36-11.34v-14.28h-4v14.28h4Zm0-14.28c0-3.472.867-5.708 2.25-7.091 1.382-1.382 3.619-2.249 7.09-2.249v-4c-4.088 0-7.521 1.023-9.919 3.421-2.397 2.397-3.421 5.831-3.421 9.919h4Zm9.34-9.34h13.02v-4h-13.02v4Zm11.82-.4 4.2 3.15 2.4-3.2-4.2-3.15-2.4 3.2Zm3.4 1.55v5.25h4v-5.25h-4Zm2 3.25h-16.66v4h16.66v-4Zm-16.66 0c-1.054 0-2.213.265-3.094 1.146-.88.88-1.146 2.039-1.146 3.094h4c0-.213.028-.317.038-.348.007-.02-.006.025-.063.082-.058.058-.103.07-.082.063.03-.01.135-.037.347-.037v-4Zm-4.24 4.24v15.68h4v-15.68h-4Zm0 15.68c0 1.055.266 2.214 1.146 3.094.881.881 2.04 1.146 3.094 1.146v-4c-.212 0-.317-.027-.347-.037-.021-.007.024.005.082.063.057.057.07.102.063.082a1.179 1.179 0 0 1-.038-.348h-4Zm4.24 4.24h16.66v-4h-16.66v4Zm14.66-2v5.25h4v-5.25h-4Zm.8 3.65-4.2 3.15 2.4 3.2 4.2-3.15-2.4-3.2Zm-3 2.75h-13.02v4h13.02v-4Zm-13.02 0c-3.471 0-5.708-.867-7.09-2.249-1.383-1.383-2.25-3.619-2.25-7.091h-4c0 4.088 1.024 7.522 3.421 9.919 2.398 2.398 5.831 3.421 9.919 3.421v-4Zm25.451 2h-2v2h2v-2Zm0-51.8v-2h-2v2h2Zm9.66 0h2v-2h-2v2Zm0 28.77h-2v5.13l3.472-3.776-1.472-1.354Zm12.81-13.93v-2h-.878l-.594.646 1.472 1.354Zm9.52 0 1.804-.863-.544-1.137h-1.26v2Zm.77 1.61 1.465 1.361.926-.997-.587-1.227-1.804.863Zm-12.81 13.79-1.465-1.361-1.094 1.177.914 1.321 1.645-1.137Zm13.79 19.95 1.804.863.501-1.046-.66-.954-1.645 1.137Zm-.77 1.61v2h1.26l.544-1.137-1.804-.863Zm-9.45 0-1.654 1.124.595.876h1.059v-2Zm-9.94-14.63 1.654-1.124-1.419-2.089-1.708 1.86 1.473 1.353Zm-3.92 4.27-1.473-1.353-.527.574v.779h2Zm0 10.36v2h2v-2h-2Zm-7.66 0v-51.8h-4V365h4Zm-2-49.8h9.66v-4h-9.66v4Zm7.66-2v28.77h4V313.2h-4Zm3.472 30.124 12.81-13.93-2.944-2.708-12.81 13.93 2.944 2.708Zm11.338-13.284h9.52v-4h-9.52v4Zm7.716-1.137.77 1.61 3.608-1.726-.77-1.61-3.608 1.726Zm1.109-.614-12.81 13.79 2.93 2.722 12.81-13.79-2.93-2.722Zm-12.99 16.288 13.79 19.95 3.29-2.274-13.79-19.95-3.29 2.274Zm13.631 17.95-.77 1.61 3.608 1.726.77-1.61-3.608-1.726Zm1.034.473h-9.45v4h9.45v-4Zm-7.796.876-9.94-14.63-3.308 2.248 9.94 14.63 3.308-2.248Zm-13.067-14.859-3.92 4.27 2.946 2.706 3.92-4.27-2.946-2.706Zm-4.447 5.623V365h4v-10.36h-4Zm2 8.36h-9.66v4h9.66v-4Zm48.042-46.3v-2h-2v2h2Zm10.08 0h2v-2h-2v2Zm17.92 0v-2h-2v2h2Zm10.08 0h2v-2h-2v2Zm-36.08 36.54V316.7h-4v36.54h4Zm-2-34.54h10.08v-4h-10.08v4Zm8.08-2v37.1h4v-37.1h-4Zm0 37.1c0 1.008.253 2.132 1.111 2.989.857.858 1.981 1.111 2.989 1.111v-4a.96.96 0 0 1-.286-.029c-.005-.001.009.003.035.019a.46.46 0 0 1 .161.161c.016.025.02.04.018.035a1.03 1.03 0 0 1-.028-.286h-4Zm4.1 4.1h13.72v-4h-13.72v4Zm13.72 0c1.008 0 2.132-.253 2.989-1.111.857-.857 1.111-1.981 1.111-2.989h-4c0 .189-.025.274-.029.286-.001.005.003-.01.019-.035a.402.402 0 0 1 .071-.09.433.433 0 0 1 .09-.071c.025-.016.04-.02.035-.019a.967.967 0 0 1-.286.029v4Zm4.1-4.1v-37.1h-4v37.1h4Zm-2-35.1h10.08v-4h-10.08v4Zm8.08-2v36.54h4V316.7h-4Zm0 36.54c0 3.612-.902 5.953-2.354 7.406-1.453 1.452-3.794 2.354-7.406 2.354v4c4.228 0 7.767-1.058 10.234-3.526 2.467-2.467 3.526-6.006 3.526-10.234h-4Zm-9.76 9.76h-14.56v4h14.56v-4Zm-14.56 0c-3.612 0-5.953-.902-7.406-2.354-1.453-1.453-2.354-3.794-2.354-7.406h-4c0 4.228 1.058 7.767 3.526 10.234 2.467 2.468 6.006 3.526 10.234 3.526v-4Zm36.7 2h-2v2h2v-2Zm0-36.96v-2h-2v2h2Zm31.78 36.96v2h2v-2h-2Zm-9.66 0h-2v2h2v-2Zm-12.46-28.56v-2h-2v2h2Zm0 28.56v2h2v-2h-2Zm-7.66 0v-36.96h-4V365h4Zm-2-34.96h20.44v-4h-20.44v4Zm20.44 0c3.472 0 5.708.867 7.091 2.249 1.382 1.383 2.249 3.619 2.249 7.091h4c0-4.088-1.023-7.522-3.421-9.919-2.397-2.398-5.831-3.421-9.919-3.421v4Zm9.34 9.34V365h4v-25.62h-4Zm2 23.62h-9.66v4h9.66v-4Zm-7.66 2v-26.32h-4V365h4Zm0-26.32c0-1.055-.265-2.214-1.146-3.094-.88-.881-2.039-1.146-3.094-1.146v4c.213 0 .317.027.348.037.02.007-.024-.005-.082-.063-.058-.057-.07-.102-.063-.082.01.031.037.135.037.348h4Zm-4.24-4.24h-10.22v4h10.22v-4Zm-12.22 2V365h4v-28.56h-4Zm2 26.56h-9.66v4h9.66v-4Zm31.693-41.05h-2v2h2v-2Zm0-9.45v-2h-2v2h2Zm10.08 0h2v-2h-2v2Zm0 9.45v2h2v-2h-2Zm-9.87 43.05h-2v2h2v-2Zm0-36.96v-2h-2v2h2Zm9.66 0h2v-2h-2v2Zm0 36.96v2h2v-2h-2Zm-7.87-43.05v-9.45h-4v9.45h4Zm-2-7.45h10.08v-4h-10.08v4Zm8.08-2v9.45h4v-9.45h-4Zm2 7.45h-10.08v4h10.08v-4Zm-7.87 45.05v-36.96h-4V365h4Zm-2-34.96h9.66v-4h-9.66v4Zm7.66-2V365h4v-36.96h-4Zm2 34.96h-9.66v4h9.66v-4Zm33.895-34.96 1.2-1.6-.533-.4h-.667v2Zm4.2 3.15h2v-1l-.8-.6-1.2 1.6Zm0 5.25v2h2v-2h-2Zm0 20.16h2v-2h-2v2Zm0 5.25 1.2 1.6.8-.6v-1h-2Zm-4.2 3.15v2h.667l.533-.4-1.2-1.6Zm-22.36-11.34v-14.28h-4v14.28h4Zm0-14.28c0-3.472.867-5.708 2.25-7.091 1.382-1.382 3.619-2.249 7.09-2.249v-4c-4.088 0-7.521 1.023-9.919 3.421-2.397 2.397-3.421 5.831-3.421 9.919h4Zm9.34-9.34h13.02v-4h-13.02v4Zm11.82-.4 4.2 3.15 2.4-3.2-4.2-3.15-2.4 3.2Zm3.4 1.55v5.25h4v-5.25h-4Zm2 3.25h-16.66v4h16.66v-4Zm-16.66 0c-1.055 0-2.213.265-3.094 1.146-.88.88-1.146 2.039-1.146 3.094h4c0-.213.028-.317.038-.348.007-.02-.006.025-.063.082-.058.058-.103.07-.082.063.03-.01.135-.037.347-.037v-4Zm-4.24 4.24v15.68h4v-15.68h-4Zm0 15.68c0 1.055.266 2.214 1.146 3.094.881.881 2.039 1.146 3.094 1.146v-4c-.212 0-.317-.027-.347-.037-.021-.007.024.005.082.063.057.057.07.102.063.082a1.179 1.179 0 0 1-.038-.348h-4Zm4.24 4.24h16.66v-4h-16.66v4Zm14.66-2v5.25h4v-5.25h-4Zm.8 3.65-4.2 3.15 2.4 3.2 4.2-3.15-2.4-3.2Zm-3 2.75h-13.02v4h13.02v-4Zm-13.02 0c-3.471 0-5.708-.867-7.09-2.249-1.383-1.383-2.25-3.619-2.25-7.091h-4c0 4.088 1.024 7.522 3.421 9.919 2.398 2.398 5.831 3.421 9.919 3.421v-4Zm26.891-9.34v-14.28h-4v14.28h4Zm0-14.28c0-3.472.866-5.708 2.249-7.091 1.383-1.382 3.619-2.249 7.091-2.249v-4c-4.088 0-7.522 1.023-9.919 3.421-2.398 2.397-3.421 5.831-3.421 9.919h4Zm9.34-9.34h9.8v-4h-9.8v4Zm9.8 0c3.472 0 5.708.867 7.091 2.249 1.382 1.383 2.249 3.619 2.249 7.091h4c0-4.088-1.024-7.522-3.421-9.919-2.397-2.398-5.831-3.421-9.919-3.421v4Zm9.34 9.34v14.28h4v-14.28h-4Zm0 14.28c0 3.472-.867 5.708-2.249 7.091-1.383 1.382-3.619 2.249-7.091 2.249v4c4.088 0 7.522-1.023 9.919-3.421 2.397-2.397 3.421-5.831 3.421-9.919h-4Zm-9.34 9.34h-9.8v4h9.8v-4Zm-9.8 0c-3.472 0-5.708-.867-7.091-2.249-1.383-1.383-2.249-3.619-2.249-7.091h-4c0 4.088 1.023 7.522 3.421 9.919 2.397 2.398 5.831 3.421 9.919 3.421v-4Zm-3.68-8.64c0 1.055.265 2.214 1.146 3.094.88.881 2.039 1.146 3.094 1.146v-4c-.213 0-.317-.027-.348-.037-.02-.007.024.005.082.063.058.057.07.102.063.082a1.198 1.198 0 0 1-.037-.348h-4Zm4.24 4.24h8.68v-4h-8.68v4Zm8.68 0c1.055 0 2.213-.265 3.094-1.146.881-.88 1.146-2.039 1.146-3.094h-4c0 .213-.027.317-.037.348-.007.02.005-.025.063-.082.057-.058.102-.07.081-.063-.03.01-.134.037-.347.037v4Zm4.24-4.24v-15.68h-4v15.68h4Zm0-15.68c0-1.055-.265-2.214-1.146-3.094-.881-.881-2.039-1.146-3.094-1.146v4c.213 0 .317.027.347.037.021.007-.024-.005-.081-.063-.058-.057-.07-.102-.063-.082.01.031.037.135.037.348h4Zm-4.24-4.24h-8.68v4h8.68v-4Zm-8.68 0c-1.055 0-2.214.265-3.094 1.146-.881.88-1.146 2.039-1.146 3.094h4c0-.213.027-.317.037-.348.007-.02-.005.025-.063.082-.058.058-.102.07-.082.063.031-.01.135-.037.348-.037v-4Zm-4.24 4.24v15.68h4v-15.68h-4ZM395.649 365h-2v2h2v-2Zm0-32.2-1.757-.956-.243.447v.509h2Zm17.5-4.76 1.2-1.6-.534-.4h-.666v2Zm4.2 3.15h2v-1l-.8-.6-1.2 1.6Zm0 5.25v2h2v-2h-2Zm-12.04 1.05-1.613-1.183-.387.528v.655h2Zm0 27.51v2h2v-2h-2Zm-7.66 0v-32.2h-4V365h4Zm-.244-31.244c1.254-2.304 3.718-3.716 8.184-3.716v-4c-5.334 0-9.498 1.762-11.697 5.804l3.513 1.912Zm8.184-3.716h7.56v-4h-7.56v4Zm6.36-.4 4.2 3.15 2.4-3.2-4.2-3.15-2.4 3.2Zm3.4 1.55v5.25h4v-5.25h-4Zm2 3.25h-9.17v4h9.17v-4Zm-9.17 0c-1.643 0-3.409.402-4.483 1.867l3.225 2.366.002-.002.016-.013a.684.684 0 0 1 .159-.077c.193-.071.534-.141 1.081-.141v-4Zm-4.87 3.05V365h4v-27.51h-4Zm2 25.51h-9.66v4h9.66v-4Zm18.92 2h-2v2h2v-2Zm0-36.96v-2h-2v2h2Zm31.78 36.96v2h2v-2h-2Zm-9.66 0h-2v2h2v-2Zm-12.46-28.56v-2h-2v2h2Zm0 28.56v2h2v-2h-2Zm-7.66 0v-36.96h-4V365h4Zm-2-34.96h20.44v-4h-20.44v4Zm20.44 0c3.472 0 5.709.867 7.091 2.249 1.383 1.383 2.249 3.619 2.249 7.091h4c0-4.088-1.023-7.522-3.42-9.919-2.398-2.398-5.831-3.421-9.92-3.421v4Zm9.34 9.34V365h4v-25.62h-4Zm2 23.62h-9.66v4h9.66v-4Zm-7.66 2v-26.32h-4V365h4Zm0-26.32c0-1.055-.265-2.214-1.145-3.094-.881-.881-2.04-1.146-3.095-1.146v4c.213 0 .318.027.348.037.021.007-.024-.005-.082-.063-.057-.057-.07-.102-.063-.082.01.031.037.135.037.348h4Zm-4.24-4.24h-10.22v4h10.22v-4Zm-12.22 2V365h4v-28.56h-4Zm2 26.56h-9.66v4h9.66v-4Zm30.643-1.15h-2v1l.8.6 1.2-1.6Zm0-5.25v-2h-2v2h2Zm16.52-5.74.352-1.969-.012-.002-.011-.002-.329 1.973Zm-7.56-1.26-.339 1.971.01.002.329-1.973Zm13.23-21.56 1.2-1.6-.533-.4h-.667v2Zm4.2 3.15h2v-1l-.8-.6-1.2 1.6Zm0 5.25v2h2v-2h-2Zm-14.7 5.81.332-1.972-.014-.002-.318 1.974Zm7.49 1.26-.332 1.972.006.001.326-1.973ZM468.732 365l-1.2 1.6.533.4h.667v-2Zm-2.2-3.15v-5.25h-4v5.25h4Zm-2-3.25h16.1v-4h-16.1v4Zm16.1 0c1.163 0 2.384-.335 3.275-1.331.854-.954 1.105-2.186 1.105-3.329h-4c0 .63-.146.729-.086.661.033-.036.064-.047.049-.041-.026.009-.128.04-.343.04v4Zm4.38-4.66c0-1.114-.194-2.253-.803-3.209-.656-1.031-1.657-1.635-2.805-1.84l-.704 3.938c.103.018.134.041.128.037-.01-.006-.008-.011.007.013.045.07.177.355.177 1.061h4Zm-3.631-5.053-7.56-1.26-.658 3.946 7.56 1.26.658-3.946Zm-7.55-1.258c-2.681-.461-4.442-1.421-5.546-2.697-1.098-1.269-1.753-3.091-1.753-5.692h-4c0 3.279.838 6.124 2.727 8.308 1.883 2.177 4.602 3.457 7.894 4.023l.678-3.942Zm-7.299-8.389c0-3.419.863-5.617 2.24-6.977 1.382-1.365 3.622-2.223 7.1-2.223v-4c-4.082 0-7.512 1.008-9.91 3.377-2.403 2.373-3.43 5.775-3.43 9.823h4Zm9.34-9.2h10.85v-4h-10.85v4Zm9.65-.4 4.2 3.15 2.4-3.2-4.2-3.15-2.4 3.2Zm3.4 1.55v5.25h4v-5.25h-4Zm2 3.25h-14.49v4h14.49v-4Zm-14.49 0c-1.163 0-2.384.335-3.276 1.331-.853.954-1.104 2.186-1.104 3.329h4c0-.63.146-.729.085-.661-.032.036-.063.047-.048.041.026-.009.128-.04.343-.04v-4Zm-4.38 4.66c0 1.16.22 2.342.895 3.322.719 1.043 1.782 1.613 2.956 1.802l.637-3.948a.696.696 0 0 1-.249-.076.144.144 0 0 1-.05-.047c-.047-.07-.189-.346-.189-1.053h-4Zm3.838 5.122 7.49 1.26.664-3.944-7.49-1.26-.664 3.944Zm7.496 1.261c2.657.44 4.396 1.379 5.484 2.63 1.082 1.243 1.732 3.039 1.732 5.617h4c0-3.255-.832-6.08-2.714-8.243-1.875-2.155-4.58-3.41-7.85-3.95l-.652 3.946Zm7.216 8.247c0 3.442-.869 5.658-2.258 7.03-1.393 1.376-3.651 2.24-7.152 2.24v4c4.105 0 7.553-1.014 9.963-3.395 2.414-2.384 3.447-5.804 3.447-9.875h-4Zm-9.41 9.27h-12.46v4h12.46v-4Zm-11.26.4-4.2-3.15-2.4 3.2 4.2 3.15 2.4-3.2Z"/>
    <path fill="#000" stroke="#fff" stroke-width="3" d="M358.029 9.585c-6.56 13.588-21.677 39.48-29.093 50.207l-6.417 9.012 7.13 11.73c3.851 6.436 7.416 11.872 8.129 12.158 1.426.43 16.258-43.77 20.822-61.937C362.022 16.88 364.589 0 363.448 0c-.427 0-2.852 4.29-5.419 9.584Z"/>
    <path fill="#000" stroke="#fff" stroke-width="3" d="M320.807 31.317c-45.493 13.589-79.72 37.19-106.959 73.81-11.124 15.019-25.671 44.343-32.659 65.799-8.699 26.749-15.117 65.37-14.118 85.11l.428 9.298 9.697 7.295c35.511 26.749 82.43 34.473 125.357 20.598 12.55-4.005 33.514-14.733 38.22-19.453 1.854-2.003 1.569-2.718-3.565-6.58-11.552-9.012-32.944-32.042-38.791-41.912-9.555-15.877-12.265-24.889-12.407-41.053-.143-7.581.285-14.304.855-14.733.571-.572 6.703 3.433 13.691 8.868 16.828 13.303 30.377 21.314 41.786 24.89 8.129 2.431 10.41 2.718 15.687 1.287C369.581 201.394 375 193.384 375 179.223c0-10.299-2.71-16.164-18.682-41.912-13.976-22.314-39.789-67.659-39.789-69.947 0-.859 3.423-6.867 7.701-13.303 4.136-6.58 9.27-15.306 11.409-19.454 4.564-9.012 4.564-9.012-14.832-3.29Zm-7.701 65.227c10.696 11.157 18.54 27.893 13.12 27.893-7.558-.143-25.385-13.303-28.379-21.027-5.134-13.589 4.706-18.023 15.259-6.866Z"/>
    <path fill="#000" stroke="#fff" stroke-width="3" d="M277.31 37.897c-18.397 4.72-25.242 7.295-41.5 15.02-42.213 20.025-75.585 53.926-97.69 99.271-3.85 7.724-8.271 18.309-9.983 23.602L125 185.373l3.137 12.016c3.708 14.876 11.837 32.328 21.82 46.632 8.7 12.444 8.842 12.301 10.126-8.011 1.996-31.612 12.122-69.661 26.668-99.7 11.409-23.888 23.531-41.34 40.645-58.361 15.972-16.021 32.23-27.607 52.196-37.191 7.416-3.433 12.835-6.294 11.98-6.294-.713 0-7.131 1.573-14.262 3.433Z"/>
  </g>
  <defs>
    <clipPath id="a">
      <path fill="#fff" d="M0 0h500v500H0z"/>
    </clipPath>
  </defs>
</svg>
