<?xml version="1.0" standalone="no"?>
<!DOCTYPE svg PUBLIC "-//W3C//DTD SVG 20010904//EN"
 "http://www.w3.org/TR/2001/REC-SVG-20010904/DTD/svg10.dtd">
<svg version="1.0" xmlns="http://www.w3.org/2000/svg"
 width="700.000000pt" height="700.000000pt" viewBox="0 0 700.000000 700.000000"
 preserveAspectRatio="xMidYMid meet">
<metadata>
Created by potrace 1.14, written by Peter Selinger 2001-2017
</metadata>
<g transform="translate(0.000000,700.000000) scale(0.100000,-0.100000)"
fill="#000000" stroke="none">
<path d="M2860 6402 c-58 -23 -82 -64 -94 -157 -3 -22 -7 -56 -10 -75 -3 -19
-10 -71 -16 -115 -6 -44 -13 -91 -15 -104 -2 -13 -7 -45 -11 -70 -3 -25 -8
-57 -10 -71 -2 -14 -11 -77 -19 -140 -9 -63 -18 -122 -21 -131 -2 -9 -60 -44
-127 -77 -67 -33 -178 -97 -246 -142 l-124 -83 -371 149 c-398 159 -430 167
-484 127 -23 -17 -105 -147 -204 -323 -14 -25 -72 -126 -130 -225 -316 -543
-313 -537 -312 -587 1 -26 8 -58 17 -71 8 -13 93 -84 187 -158 95 -74 177
-139 184 -144 6 -6 52 -42 101 -80 50 -38 92 -72 95 -75 3 -3 22 -18 43 -33
l38 -29 -8 -86 c-10 -108 -9 -300 0 -408 l8 -82 -316 -247 c-174 -136 -323
-257 -331 -270 -38 -58 -19 -128 85 -300 51 -85 370 -636 416 -720 99 -176
138 -215 213 -209 20 2 201 69 402 149 332 134 367 146 387 134 12 -8 62 -41
110 -74 48 -33 151 -92 228 -131 l139 -70 18 -125 c10 -68 20 -144 23 -169 3
-25 8 -56 10 -70 5 -26 9 -55 19 -131 4 -25 9 -57 11 -70 2 -13 6 -44 9 -69
21 -164 36 -204 90 -236 29 -18 62 -19 649 -20 563 -1 621 1 656 17 54 24 75
75 96 234 10 72 18 137 20 145 2 8 6 35 9 60 3 25 8 54 10 65 2 11 7 47 12 80
4 33 8 62 9 65 4 15 28 216 26 219 -1 2 55 32 126 66 70 35 184 100 252 145
l124 82 121 -47 c66 -26 135 -53 151 -60 17 -7 127 -52 245 -100 325 -132 327
-131 475 140 6 11 87 151 180 310 93 160 178 308 190 330 12 22 48 83 78 136
63 106 74 154 48 209 -12 25 -78 84 -236 207 -121 95 -224 176 -230 180 -5 5
-50 40 -98 78 l-88 69 7 76 c10 96 10 312 0 416 l-8 81 179 139 c98 76 183
143 190 149 6 5 26 21 44 35 119 90 230 182 239 199 17 33 18 94 1 132 -12 27
-232 411 -292 509 -17 29 -102 177 -131 230 -11 19 -28 49 -38 65 -10 17 -30
51 -44 77 -72 132 -102 173 -144 194 -25 13 -55 20 -74 18 -27 -2 -573 -215
-693 -269 -61 -27 -80 -28 -111 -3 -63 52 -186 126 -319 194 -104 52 -140 75
-141 90 -1 10 -4 37 -8 59 -8 47 -32 213 -40 270 -23 180 -58 406 -66 436 -11
41 -34 70 -70 90 -38 21 -1239 22 -1290 1z m877 -1750 c12 -7 25 -21 28 -33 9
-26 8 -2213 0 -2239 -13 -41 -47 -47 -270 -46 -219 1 -247 6 -260 46 -3 11 -6
517 -7 1125 0 1204 -3 1148 54 1157 60 10 434 2 455 -10z m-1042 -477 c16 -15
25 -36 26 -57 4 -203 0 -1719 -5 -1736 -14 -44 -45 -50 -279 -48 l-218 1 -19
25 c-11 14 -20 34 -20 45 -1 11 -2 409 -2 884 l-1 865 27 23 c27 23 31 23 247
23 l220 0 24 -25z m2085 -685 c42 -22 43 -33 43 -570 -1 -284 -4 -526 -7 -538
-13 -41 -40 -46 -251 -48 -211 -3 -258 4 -276 39 -8 15 -12 168 -11 521 0 276
1 514 1 529 1 15 12 39 26 52 l24 25 216 0 c128 0 224 -4 235 -10z"/>
</g>
</svg>
